<?xml version="1.0" encoding="UTF-8"?>
<svg id="Ebene_1" xmlns="http://www.w3.org/2000/svg" version="1.1" viewBox="0 0 512 512">
  <!-- Generator: Adobe Illustrator 30.2.1, SVG Export Plug-In . SVG Version: 2.1.1 Build 1)  -->
  <defs>
    <style>
      .st0 {
        fill: #c8c8ff;
      }

      .st1 {
        fill: blue;
      }

      .st2 {
        fill: #fff;
      }

      .st3 {
        fill: #0000a4;
      }
    </style>
  </defs>
  <g>
    <path class="st2" d="M497.99,237.83h-118.73c8.51-10.62,14.86-23.16,18.33-37.02,13.04-52.18-34.22-99.44-86.39-86.39-13.86,3.47-26.39,9.82-37.01,18.33V14.01c-5.94-.22-11.99-.34-18.18-.34s-12.23.12-18.17.34v118.73c-10.62-8.51-23.16-14.86-37.02-18.33-52.18-13.04-99.44,34.22-86.39,86.39,3.47,13.86,9.82,26.39,18.33,37.02H14.01c-.22,5.94-.34,11.99-.34,18.17s.12,12.24.34,18.18h197.48c-8.21,34.73-39.41,60.58-76.65,60.58-10.04,0-18.18,8.14-18.18,18.18s8.14,18.18,18.18,18.18c45.08,0,84.1-25.91,102.99-63.65v190.53c5.94.22,11.99.34,18.17.34s12.24-.12,18.18-.34v-190.53c18.89,37.74,57.92,63.65,102.99,63.65,10.04,0,18.18-8.14,18.18-18.18s-8.14-18.18-18.18-18.18c-37.24,0-68.45-25.85-76.65-60.58h197.48c.22-5.94.34-11.99.34-18.18s-.12-12.23-.34-18.17ZM237.83,237.83h-29.44c-27.76,0-51.97-18.9-58.7-45.83-6.39-25.55,16.76-48.7,42.31-42.31,26.94,6.73,45.83,30.94,45.83,58.7v29.44ZM362.32,191.99c-6.73,26.94-30.94,45.83-58.7,45.83h-29.44v-29.44c0-27.76,18.89-51.97,45.83-58.7,25.55-6.39,48.7,16.76,42.31,42.31Z"/>
    <path class="st1" d="M114.42,200.81c-13.04-52.18,34.22-99.44,86.39-86.39,13.86,3.47,26.39,9.82,37.02,18.33V14.01C91.11,19.37,19.37,91.11,14.01,237.83h118.73c-8.51-10.62-14.86-23.16-18.33-37.02Z"/>
    <path class="st1" d="M134.83,371.11c-10.04,0-18.18-8.14-18.18-18.18s8.14-18.18,18.18-18.18c37.24,0,68.45-25.85,76.65-60.58H14.01c5.36,146.71,77.11,218.45,223.82,223.81v-190.53c-18.89,37.74-57.92,63.65-102.99,63.65Z"/>
    <path class="st1" d="M377.17,334.76c10.04,0,18.18,8.14,18.18,18.18s-8.14,18.18-18.18,18.18c-45.08,0-84.1-25.91-102.99-63.65v190.53c146.7-5.36,218.45-77.11,223.81-223.81h-197.48c8.21,34.73,39.41,60.58,76.65,60.58Z"/>
    <path class="st1" d="M311.19,114.42c52.18-13.04,99.44,34.22,86.39,86.39-3.47,13.86-9.82,26.39-18.33,37.02h118.73c-5.36-146.7-77.1-218.45-223.81-223.82v118.73c10.62-8.51,23.16-14.86,37.01-18.33Z"/>
    <path class="st1" d="M191.99,149.68c-25.55-6.39-48.7,16.76-42.31,42.31,6.73,26.94,30.94,45.83,58.7,45.83h29.44v-29.44c0-27.76-18.9-51.97-45.83-58.7Z"/>
    <path class="st1" d="M320.01,149.68c-26.94,6.73-45.83,30.94-45.83,58.7v29.44h29.44c27.76,0,51.97-18.9,58.7-45.83,6.39-25.55-16.76-48.7-42.31-42.31Z"/>
  </g>
  <path class="st0" d="M260.46,46.1c90.06-8.16,172.11,28.15,196.89,120.6,5.84,21.93,7.99,44.52,7.21,67.07v.15c-.03,1.65-2.46,1.76-2.66.11-.61-5.14-1.29-10.28-2.14-15.35-6.3-40.96-20.03-82.38-48.9-112.91-38.76-41.68-95.72-54.53-150.4-59.68h0Z"/>
  <path class="st3" d="M244.83,467.77c-90.06,8.16-172.11-28.15-196.89-120.6-5.84-21.93-7.99-44.52-7.21-67.07v-.15c.03-1.65,2.46-1.76,2.66-.11.61,5.14,1.29,10.28,2.14,15.35,6.3,40.96,20.03,82.38,48.9,112.91,38.76,41.68,95.72,54.53,150.4,59.68h0Z"/>
</svg>