<?xml version="1.0" encoding="UTF-8"?>
<svg id="Ebene_1" xmlns="http://www.w3.org/2000/svg" version="1.1" viewBox="0 0 250 250">
  <!-- Generator: Adobe Illustrator 30.2.1, SVG Export Plug-In . SVG Version: 2.1.1 Build 1)  -->
  <defs>
    <style>
      .st0 {
        fill: #fff;
      }
    </style>
  </defs>
  <path class="st0" d="M116.58,6c-50.2.05-76.17.95-92.65,17.42C7.45,39.9,6.55,65.88,6.5,116.08h58.47c-4.18-5.22-7.3-11.37-9-18.18-6.41-25.62,16.8-48.83,42.42-42.42,6.81,1.7,12.96,4.82,18.18,9V6Z"/>
  <path class="st0" d="M6.5,133.93c.05,50.2.95,76.17,17.42,92.65,16.48,16.48,42.45,17.38,92.65,17.42v-93.73c-9.28,18.53-28.44,31.25-50.58,31.25-4.93,0-8.93-4-8.93-8.93s4-8.93,8.93-8.93c18.29,0,33.61-12.69,37.64-29.75H6.5Z"/>
  <path class="st0" d="M134.43,244c50.2-.05,76.17-.95,92.65-17.42,16.48-16.48,17.38-42.45,17.42-92.65h-97.14c4.03,17.06,19.35,29.75,37.64,29.75,4.93,0,8.93,4,8.93,8.93s-4,8.93-8.93,8.93c-22.14,0-41.3-12.72-50.58-31.25v93.73Z"/>
  <path class="st0" d="M244.5,116.08c-.05-50.2-.95-76.17-17.42-92.65-16.48-16.48-42.45-17.38-92.65-17.42v58.47c5.22-4.18,11.37-7.3,18.18-9,25.62-6.41,48.83,16.8,42.42,42.42-1.7,6.81-4.82,12.96-9,18.18h58.47Z"/>
  <path class="st0" d="M94.07,72.79c13.23,3.31,22.51,15.19,22.51,28.83v14.46h-14.46c-13.63,0-25.52-9.28-28.83-22.51-3.14-12.55,8.23-23.91,20.78-20.78Z"/>
  <path class="st0" d="M134.43,101.62v14.46h14.46c13.63,0,25.52-9.28,28.83-22.51,3.14-12.55-8.23-23.91-20.78-20.78-13.23,3.31-22.51,15.19-22.51,28.83Z"/>
</svg>